<svg xmlns="http://www.w3.org/2000/svg" xmlns:xlink="http://www.w3.org/1999/xlink" id="Calque_1" viewBox="0 0 307.21 95.92"><defs><style>.cls-1{fill:url(#Dégradé_sans_nom_15-11);}.cls-1,.cls-2,.cls-3,.cls-4,.cls-5,.cls-6,.cls-7,.cls-8,.cls-9,.cls-10,.cls-11,.cls-12,.cls-13,.cls-14{stroke-width:0px;}.cls-2{fill:url(#Dégradé_sans_nom_15-10);}.cls-3{fill:url(#Dégradé_sans_nom_15-12);}.cls-4{fill:url(#Dégradé_sans_nom_15-13);}.cls-5{fill:url(#Dégradé_sans_nom_15-6);}.cls-6{fill:url(#Dégradé_sans_nom_15-7);}.cls-7{fill:url(#Dégradé_sans_nom_15-5);}.cls-8{fill:url(#Dégradé_sans_nom_15-8);}.cls-9{fill:url(#Dégradé_sans_nom_15-2);}.cls-10{fill:url(#Dégradé_sans_nom_15-9);}.cls-11{fill:url(#Dégradé_sans_nom_15-3);}.cls-12{fill:url(#Dégradé_sans_nom_15-4);}.cls-13{fill:#3c1558;}.cls-14{fill:url(#Dégradé_sans_nom_15);}</style><linearGradient id="D&#xE9;grad&#xE9;_sans_nom_15" x1="9.5" y1="82.13" x2="70.74" y2="11.8" gradientUnits="userSpaceOnUse"><stop offset=".2" stop-color="#907aa6"></stop><stop offset="1" stop-color="#f39b93"></stop></linearGradient><linearGradient id="D&#xE9;grad&#xE9;_sans_nom_15-2" x1=".94" y1="74.67" x2="62.18" y2="4.35" xlink:href="#D&#xE9;grad&#xE9;_sans_nom_15"></linearGradient><linearGradient id="D&#xE9;grad&#xE9;_sans_nom_15-3" x1="6.89" y1="79.85" x2="68.13" y2="9.53" xlink:href="#D&#xE9;grad&#xE9;_sans_nom_15"></linearGradient><linearGradient id="D&#xE9;grad&#xE9;_sans_nom_15-4" x1="-1.5" y1="72.55" x2="59.75" y2="2.23" xlink:href="#D&#xE9;grad&#xE9;_sans_nom_15"></linearGradient><linearGradient id="D&#xE9;grad&#xE9;_sans_nom_15-5" x1="-19.91" y1="56.52" x2="41.34" y2="-13.8" xlink:href="#D&#xE9;grad&#xE9;_sans_nom_15"></linearGradient><linearGradient id="D&#xE9;grad&#xE9;_sans_nom_15-6" x1="-15.29" y1="60.54" x2="45.96" y2="-9.79" xlink:href="#D&#xE9;grad&#xE9;_sans_nom_15"></linearGradient><linearGradient id="D&#xE9;grad&#xE9;_sans_nom_15-7" x1="-9.4" y1="65.67" x2="51.85" y2="-4.65" xlink:href="#D&#xE9;grad&#xE9;_sans_nom_15"></linearGradient><linearGradient id="D&#xE9;grad&#xE9;_sans_nom_15-8" x1="-22.54" y1="54.23" x2="38.71" y2="-16.1" xlink:href="#D&#xE9;grad&#xE9;_sans_nom_15"></linearGradient><linearGradient id="D&#xE9;grad&#xE9;_sans_nom_15-9" x1="-22.91" y1="53.91" x2="38.34" y2="-16.42" xlink:href="#D&#xE9;grad&#xE9;_sans_nom_15"></linearGradient><linearGradient id="D&#xE9;grad&#xE9;_sans_nom_15-10" x1="-21.09" y1="55.49" x2="40.16" y2="-14.83" xlink:href="#D&#xE9;grad&#xE9;_sans_nom_15"></linearGradient><linearGradient id="D&#xE9;grad&#xE9;_sans_nom_15-11" x1="-17.1" y1="58.96" x2="44.15" y2="-11.36" xlink:href="#D&#xE9;grad&#xE9;_sans_nom_15"></linearGradient><linearGradient id="D&#xE9;grad&#xE9;_sans_nom_15-12" x1="-11.69" y1="63.67" x2="49.55" y2="-6.65" xlink:href="#D&#xE9;grad&#xE9;_sans_nom_15"></linearGradient><linearGradient id="D&#xE9;grad&#xE9;_sans_nom_15-13" x1="7.57" y1="80.45" x2="68.82" y2="10.13" xlink:href="#D&#xE9;grad&#xE9;_sans_nom_15"></linearGradient></defs><path class="cls-14" d="M41.78,36.66c-.15.24-.31.48-.47.72l3.9,3.08,4.57,3.83c.58-.77,1.11-1.58,1.6-2.42l-5.27-2.77-4.34-2.44Z"></path><polygon class="cls-13" points="104.27 74.33 104.27 38.5 91.76 38.5 91.76 27.64 129.66 27.64 129.66 38.5 117.52 38.5 117.52 74.33 104.27 74.33"></polygon><path class="cls-13" d="M153.61,74.91c-6.71,0-11.9-1.75-15.42-5.21-3.52-3.46-5.31-8.55-5.31-15.14v-26.92h12.86v27.37c0,3.1.69,5.5,2.05,7.14,1.35,1.62,3.25,2.41,5.83,2.41s4.48-.79,5.83-2.41c1.36-1.64,2.05-4.04,2.05-7.14v-27.37h12.93v26.92c0,6.55-1.81,11.63-5.38,15.11-3.56,3.48-8.75,5.24-15.42,5.24Z"></path><path class="cls-13" d="M214.88,60.51c-1.13-2.08-2.57-3.59-4.28-4.51.33-.07.61-.15.83-.23,2.66-.98,4.79-2.43,6.39-4.45,1.97-2.49,2.97-5.56,2.97-9.12,0-4.68-1.47-8.32-4.38-10.82-2.88-2.47-7.19-3.73-12.82-3.73h-22.28v46.69h12.93v-17.01h1.71c1.92,0,3.29.72,4.15,2.18l8.2,14.83h14.47l-7.9-13.82ZM194.12,47.16v-9.3h7.62c2.47,0,4.24.38,5.26,1.13.98.72,1.45,1.89,1.45,3.58s-.47,2.79-1.44,3.48c-1.02.73-2.8,1.11-5.27,1.11h-7.62Z"></path><path class="cls-13" d="M260.48,74.33l-3.67-9.41h-17.44l-3.67,9.41h-13.29l19.72-46.69h11.71l19.78,46.69h-13.12ZM252.87,54.77l-4.79-12.33-4.79,12.33h9.58Z"></path><polygon class="cls-13" points="274.76 74.33 274.76 27.64 287.88 27.64 287.88 63.47 307.21 63.47 307.21 74.33 274.76 74.33"></polygon><path class="cls-13" d="M90.99,53.72c-1.04-1.77-2.82-3.33-5.27-4.65-2.41-1.29-5.73-2.4-9.9-3.32-2.49-.51-4.39-1.01-5.64-1.49-1.48-.57-2.12-1.05-2.4-1.35-.36-.4-.54-.91-.54-1.57,0-1.15.56-2.06,1.7-2.78,1.22-.77,2.89-1.16,4.95-1.16,3.72,0,7.34,1.01,10.79,2.98l4.44-9.5c-1.54-.94-3.41-1.75-5.61-2.41-3.12-.94-6.38-1.41-9.69-1.41-3.76,0-7.16.66-10.08,1.95-2.95,1.31-5.27,3.14-6.9,5.43-1.64,2.31-2.47,4.96-2.47,7.87,0,2.55.52,4.74,1.53,6.5,1.02,1.77,2.81,3.33,5.32,4.63,2.44,1.27,5.86,2.37,10.15,3.28,3.35.71,5.64,1.43,6.8,2.12,1.03.61,1.53,1.36,1.53,2.29,0,1.04-.55,1.84-1.69,2.44-1.26.66-3.14.99-5.6.99s-4.94-.36-7.36-1.07c-2.43-.71-4.74-1.75-6.86-3.09l-.62-.39-1.92,10.98c1.81,1.01,3.95,1.87,6.42,2.54,3.35.91,6.78,1.38,10.22,1.38,6.34,0,11.34-1.31,14.87-3.89,3.59-2.63,5.41-6.32,5.41-10.98,0-2.42-.53-4.55-1.57-6.31Z"></path><path class="cls-13" d="M9.41,93.5l-.81-1.88h-3.92l-.81,1.88h-1.48l3.64-8.05h1.2l3.64,8.05h-1.46ZM5.16,90.47h2.95l-1.47-3.43-1.47,3.43Z"></path><path class="cls-13" d="M13.17,93.09c-.59-.34-1.04-.82-1.36-1.44-.32-.62-.47-1.35-.47-2.18s.16-1.55.47-2.18c.32-.62.77-1.1,1.36-1.44.59-.34,1.28-.51,2.07-.51.54,0,1.05.08,1.53.25s.88.4,1.21.71l-.49,1.07c-.37-.29-.73-.5-1.08-.63-.36-.13-.74-.2-1.14-.2-.78,0-1.38.25-1.8.75-.42.5-.63,1.23-.63,2.17s.21,1.68.63,2.18c.42.5,1.02.75,1.8.75.4,0,.78-.07,1.14-.2.36-.13.72-.34,1.08-.63l.49,1.07c-.33.3-.73.54-1.21.71-.48.17-.99.25-1.53.25-.79,0-1.48-.17-2.07-.51Z"></path><path class="cls-13" d="M21.23,93.5v-6.84h-2.63v-1.21h6.72v1.21h-2.63v6.84h-1.47Z"></path><path class="cls-13" d="M26.45,93.5v-8.05h1.47v8.05h-1.47Z"></path><path class="cls-13" d="M31.31,93.1c-.57-.33-1.02-.81-1.33-1.44-.31-.62-.47-1.35-.47-2.19s.15-1.57.46-2.19c.31-.62.75-1.1,1.33-1.43.58-.33,1.26-.5,2.04-.5s1.46.17,2.04.5,1.02.81,1.32,1.43c.31.62.46,1.35.46,2.19s-.16,1.57-.47,2.19c-.31.62-.76,1.1-1.33,1.44-.58.34-1.25.5-2.03.5s-1.46-.17-2.04-.5ZM35.08,91.66c.41-.51.62-1.24.62-2.19s-.21-1.68-.62-2.19c-.42-.51-.99-.76-1.73-.76s-1.33.25-1.74.76c-.41.51-.62,1.23-.62,2.19s.21,1.68.62,2.19c.42.51,1,.76,1.74.76s1.31-.25,1.73-.76Z"></path><path class="cls-13" d="M44.19,85.45h1.38v8.05h-1.11l-4.32-5.62v5.62h-1.37v-8.05h1.1l4.32,5.61v-5.61Z"></path><path class="cls-13" d="M48.41,93.35c-.54-.17-1-.4-1.37-.71l.49-1.07c.39.3.8.51,1.23.65.43.14.9.21,1.4.21.56,0,.98-.1,1.28-.29s.45-.47.45-.82c0-.3-.14-.54-.42-.7-.28-.16-.74-.31-1.39-.46-.67-.14-1.21-.31-1.63-.5-.42-.19-.73-.43-.95-.73s-.32-.67-.32-1.13.13-.89.39-1.27c.26-.37.62-.66,1.1-.87.47-.21,1.02-.31,1.63-.31.56,0,1.1.09,1.61.26.51.17.93.41,1.26.7l-.49,1.07c-.72-.57-1.51-.86-2.37-.86-.52,0-.93.1-1.23.31-.3.21-.45.5-.45.87,0,.31.13.55.4.72.27.17.72.32,1.36.47.68.15,1.23.32,1.65.51s.75.42.97.71c.22.29.34.65.34,1.1,0,.48-.13.9-.38,1.26s-.62.64-1.11.83-1.05.29-1.71.29c-.62,0-1.2-.08-1.74-.25Z"></path><path class="cls-13" d="M58.03,93.5v-8.05h5.39v1.16h-3.95v2.21h3.72v1.15h-3.72v2.35h3.95v1.16h-5.39ZM61.36,84.76h-.91l1.16-1.76h1.38l-1.63,1.76Z"></path><path class="cls-13" d="M64.86,85.45h2.97c1.32,0,2.34.35,3.07,1.06.73.7,1.09,1.69,1.09,2.96s-.36,2.26-1.09,2.97c-.73.71-1.75,1.06-3.07,1.06h-2.97v-8.05ZM67.74,92.3c1.85,0,2.77-.94,2.77-2.83s-.92-2.82-2.77-2.82h-1.4v5.65h1.4Z"></path><path class="cls-13" d="M74.4,92.74c-.57-.57-.86-1.4-.86-2.5v-4.8h1.44v4.88c0,.69.16,1.22.49,1.57.33.35.81.53,1.44.53s1.1-.18,1.43-.54c.33-.36.49-.88.49-1.56v-4.88h1.44v4.8c0,1.09-.29,1.92-.86,2.49-.57.57-1.4.86-2.5.86s-1.94-.29-2.51-.86Z"></path><path class="cls-13" d="M83.65,93.09c-.59-.34-1.04-.82-1.36-1.44-.32-.62-.47-1.35-.47-2.18s.16-1.55.47-2.18c.32-.62.77-1.1,1.36-1.44.59-.34,1.28-.51,2.07-.51.54,0,1.05.08,1.53.25s.88.4,1.21.71l-.49,1.07c-.37-.29-.73-.5-1.08-.63-.36-.13-.74-.2-1.14-.2-.78,0-1.38.25-1.8.75-.42.5-.63,1.23-.63,2.17s.21,1.68.63,2.18c.42.5,1.02.75,1.8.75.4,0,.78-.07,1.14-.2.36-.13.72-.34,1.08-.63l.49,1.07c-.33.3-.73.54-1.21.71-.48.17-.99.25-1.53.25-.79,0-1.48-.17-2.07-.51Z"></path><path class="cls-13" d="M95.93,93.5l-.81-1.88h-3.92l-.81,1.88h-1.48l3.64-8.05h1.2l3.64,8.05h-1.46ZM91.68,90.47h2.95l-1.47-3.43-1.47,3.43Z"></path><path class="cls-13" d="M99.26,93.5v-6.84h-2.63v-1.21h6.72v1.21h-2.63v6.84h-1.47Z"></path><path class="cls-13" d="M104.48,93.5v-8.05h1.47v8.05h-1.47Z"></path><path class="cls-13" d="M113.71,85.45h1.5l-3.58,8.05h-1.2l-3.58-8.05h1.52l2.67,6.22,2.68-6.22Z"></path><path class="cls-13" d="M116.07,93.5v-8.05h5.39v1.16h-3.95v2.21h3.72v1.15h-3.72v2.35h3.95v1.16h-5.39Z"></path><path class="cls-13" d="M123.79,93.35c-.54-.17-1-.4-1.37-.71l.49-1.07c.39.3.8.51,1.23.65.43.14.9.21,1.4.21.56,0,.98-.1,1.28-.29s.45-.47.45-.82c0-.3-.14-.54-.42-.7-.28-.16-.74-.31-1.39-.46-.67-.14-1.21-.31-1.63-.5-.42-.19-.73-.43-.95-.73s-.32-.67-.32-1.13.13-.89.39-1.27c.26-.37.62-.66,1.1-.87.47-.21,1.02-.31,1.63-.31.56,0,1.1.09,1.61.26.51.17.93.41,1.26.7l-.49,1.07c-.72-.57-1.51-.86-2.37-.86-.52,0-.93.1-1.23.31-.3.21-.45.5-.45.87,0,.31.13.55.4.72.27.17.72.32,1.36.47.68.15,1.23.32,1.65.51s.75.42.97.71c.22.29.34.65.34,1.1,0,.48-.13.9-.38,1.26s-.62.64-1.11.83-1.05.29-1.71.29c-.62,0-1.2-.08-1.74-.25Z"></path><path class="cls-13" d="M133.4,93.5v-8.05h5.39v1.16h-3.95v2.21h3.72v1.15h-3.72v2.35h3.95v1.16h-5.39Z"></path><path class="cls-13" d="M142.15,93.5v-6.84h-2.63v-1.21h6.72v1.21h-2.63v6.84h-1.47Z"></path><path class="cls-13" d="M150.57,85.45h3.52c.86,0,1.53.22,2.01.65.48.43.72,1.03.72,1.81s-.24,1.38-.72,1.82-1.15.65-2.01.65h-2.04v3.13h-1.47v-8.05ZM153.91,89.24c1.01,0,1.52-.44,1.52-1.32,0-.45-.13-.78-.38-1-.25-.22-.63-.33-1.14-.33h-1.86v2.65h1.86Z"></path><path class="cls-13" d="M158.22,93.5v-8.05h5.39v1.16h-3.95v2.21h3.72v1.15h-3.72v2.35h3.95v1.16h-5.39ZM161.56,84.76h-.91l1.16-1.76h1.38l-1.63,1.76Z"></path><path class="cls-13" d="M165.06,85.45h2.97c1.32,0,2.34.35,3.07,1.06.73.7,1.09,1.69,1.09,2.96s-.36,2.26-1.09,2.97c-.73.71-1.75,1.06-3.07,1.06h-2.97v-8.05ZM167.94,92.3c1.85,0,2.77-.94,2.77-2.83s-.92-2.82-2.77-2.82h-1.4v5.65h1.4Z"></path><path class="cls-13" d="M179.73,93.5l-.81-1.88h-3.92l-.81,1.88h-1.48l3.64-8.05h1.2l3.64,8.05h-1.46ZM175.49,90.47h2.95l-1.47-3.43-1.47,3.43Z"></path><path class="cls-13" d="M188.63,89.15v3.86c-.37.18-.81.33-1.33.43-.52.11-1.05.16-1.59.16-.83,0-1.55-.17-2.16-.5-.61-.33-1.08-.81-1.4-1.43-.32-.62-.48-1.36-.48-2.21s.16-1.58.48-2.2c.32-.62.78-1.1,1.38-1.43.6-.33,1.3-.5,2.11-.5.56,0,1.09.08,1.59.25.49.16.91.4,1.23.7l-.49,1.06c-.37-.29-.74-.5-1.1-.62-.36-.13-.76-.19-1.19-.19-.83,0-1.46.25-1.88.74-.42.49-.63,1.22-.63,2.19,0,1.98.87,2.97,2.6,2.97.52,0,1.04-.07,1.55-.22v-2.02h-1.74v-1.05h3.05Z"></path><path class="cls-13" d="M191.94,93.1c-.57-.33-1.02-.81-1.33-1.44-.31-.62-.47-1.35-.47-2.19s.15-1.57.46-2.19c.31-.62.75-1.1,1.33-1.43.58-.33,1.26-.5,2.04-.5s1.46.17,2.04.5,1.02.81,1.32,1.43c.31.62.46,1.35.46,2.19s-.16,1.57-.47,2.19c-.31.62-.76,1.1-1.33,1.44-.58.34-1.25.5-2.03.5s-1.46-.17-2.04-.5ZM195.71,91.66c.41-.51.62-1.24.62-2.19s-.21-1.68-.62-2.19c-.42-.51-.99-.76-1.73-.76s-1.33.25-1.74.76c-.41.51-.62,1.23-.62,2.19s.21,1.68.62,2.19c.42.51,1,.76,1.74.76s1.31-.25,1.73-.76Z"></path><path class="cls-13" d="M199.31,91.01v-1.13h3.4v1.13h-3.4Z"></path><path class="cls-13" d="M205.82,93.5v-6.84h-2.63v-1.21h6.72v1.21h-2.63v6.84h-1.47Z"></path><path class="cls-13" d="M216.61,85.45h1.44v8.05h-1.44v-3.49h-4.12v3.49h-1.45v-8.05h1.45v3.37h4.12v-3.37Z"></path><path class="cls-13" d="M219.9,93.5v-8.05h5.39v1.16h-3.95v2.21h3.72v1.15h-3.72v2.35h3.95v1.16h-5.39ZM223.23,84.76h-.91l1.16-1.76h1.38l-1.63,1.76Z"></path><path class="cls-13" d="M233.49,93.5h-1.6l-1.38-2.57c-.13-.24-.29-.41-.48-.51s-.43-.15-.72-.15h-1.12v3.23h-1.45v-8.05h3.56c.91,0,1.61.2,2.08.61.48.41.71,1,.71,1.76,0,.62-.17,1.12-.52,1.52s-.84.66-1.47.78c.43.11.77.41,1.03.9l1.35,2.47ZM231.32,88.82c.26-.21.39-.53.39-.96s-.13-.76-.39-.96-.67-.3-1.22-.3h-1.92v2.55h1.92c.56,0,.96-.1,1.22-.31Z"></path><path class="cls-13" d="M240.85,93.5l-.81-1.88h-3.92l-.81,1.88h-1.48l3.64-8.05h1.2l3.64,8.05h-1.46ZM236.6,90.47h2.95l-1.47-3.43-1.47,3.43Z"></path><path class="cls-13" d="M243.28,85.45h3.52c.86,0,1.53.22,2.01.65.48.43.72,1.03.72,1.81s-.24,1.38-.72,1.82-1.15.65-2.01.65h-2.04v3.13h-1.47v-8.05ZM246.62,89.24c1.01,0,1.52-.44,1.52-1.32,0-.45-.13-.78-.38-1-.25-.22-.63-.33-1.14-.33h-1.86v2.65h1.86Z"></path><path class="cls-13" d="M250.93,93.5v-8.05h5.39v1.16h-3.95v2.21h3.72v1.15h-3.72v2.35h3.95v1.16h-5.39Z"></path><path class="cls-13" d="M258.58,92.74c-.57-.57-.86-1.4-.86-2.5v-4.8h1.44v4.88c0,.69.16,1.22.49,1.57.33.35.81.53,1.44.53s1.1-.18,1.43-.54c.33-.36.49-.88.49-1.56v-4.88h1.44v4.8c0,1.09-.29,1.92-.86,2.49-.57.57-1.4.86-2.5.86s-1.94-.29-2.51-.86Z"></path><path class="cls-13" d="M268.15,93.5v-6.84h-2.63v-1.21h6.72v1.21h-2.63v6.84h-1.47Z"></path><path class="cls-13" d="M273.37,93.5v-8.05h1.47v8.05h-1.47Z"></path><path class="cls-13" d="M282.48,93.49c.14.12.27.28.4.5l.82,1.34-1.23.59-1.11-1.79c-.21-.35-.58-.53-1.08-.53-.78,0-1.46-.17-2.04-.5-.57-.33-1.02-.81-1.33-1.44-.31-.62-.47-1.35-.47-2.19s.16-1.57.47-2.19.76-1.1,1.33-1.43,1.25-.5,2.04-.5,1.45.17,2.03.5c.57.33,1.02.81,1.33,1.43.31.62.47,1.35.47,2.19,0,.91-.18,1.7-.54,2.35-.36.65-.88,1.12-1.56,1.42.18.05.34.14.48.26ZM282,91.66c.41-.51.62-1.24.62-2.19s-.21-1.68-.62-2.19c-.42-.51-.99-.76-1.73-.76s-1.33.25-1.74.76c-.41.51-.62,1.23-.62,2.19s.21,1.68.62,2.19c.42.51,1,.76,1.74.76s1.31-.25,1.73-.76Z"></path><path class="cls-13" d="M286.51,92.74c-.57-.57-.86-1.4-.86-2.5v-4.8h1.44v4.88c0,.69.16,1.22.49,1.57.33.35.81.53,1.44.53s1.1-.18,1.43-.54c.33-.36.49-.88.49-1.56v-4.88h1.44v4.8c0,1.09-.29,1.92-.86,2.49-.57.57-1.4.86-2.5.86s-1.94-.29-2.51-.86Z"></path><path class="cls-13" d="M294.18,93.5v-8.05h5.39v1.16h-3.95v2.21h3.72v1.15h-3.72v2.35h3.95v1.16h-5.39Z"></path><path class="cls-13" d="M301.9,93.35c-.54-.17-1-.4-1.37-.71l.49-1.07c.39.3.8.51,1.23.65.43.14.9.21,1.4.21.56,0,.98-.1,1.28-.29s.45-.47.45-.82c0-.3-.14-.54-.42-.7-.28-.16-.74-.31-1.39-.46-.67-.14-1.21-.31-1.63-.5-.42-.19-.73-.43-.95-.73s-.32-.67-.32-1.13.13-.89.39-1.27c.26-.37.62-.66,1.1-.87.47-.21,1.02-.31,1.63-.31.56,0,1.1.09,1.61.26.51.17.93.41,1.26.7l-.49,1.07c-.72-.57-1.51-.86-2.37-.86-.52,0-.93.1-1.23.31-.3.21-.45.5-.45.87,0,.31.13.55.4.72.27.17.72.32,1.36.47.68.15,1.23.32,1.65.51s.75.42.97.71c.22.29.34.65.34,1.1,0,.48-.13.9-.38,1.26s-.62.64-1.11.83-1.05.29-1.71.29c-.62,0-1.2-.08-1.74-.25Z"></path><path class="cls-9" d="M53.15,11.48l5.96-3.33,6.07-3.17c-.27-.44-.55-.88-.83-1.31s-.58-.85-.88-1.26l-5.26,4.38-5.37,4.22.31.48Z"></path><path class="cls-11" d="M49.79,23.82l6.78-.8,6.82-.61c-.08-.51-.17-1.02-.27-1.53s-.21-1.01-.33-1.5l-6.54,2.03-6.57,1.84.11.56Z"></path><polygon class="cls-13" points="35.36 27.64 29.62 42.42 34.41 54.77 24.83 54.77 20.88 64.92 38.34 64.92 42.02 74.33 55.14 74.33 35.36 27.64"></polygon><polygon class="cls-12" points="14.07 74.33 32.2 27.64 20.5 27.64 .78 74.33 14.07 74.33"></polygon><path class="cls-7" d="M25.35,13.61l-.8-6.78-.61-6.82c-.51.08-1.02.17-1.53.27s-1.01.21-1.5.33l2.03,6.54,1.84,6.57.56-.11Z"></path><path class="cls-5" d="M31.02,13.71l1.86-6.57,2.05-6.54c-.5-.12-1.01-.23-1.51-.34S32.4.08,31.9,0l-.62,6.82-.81,6.78.56.12Z"></path><path class="cls-6" d="M36.22,15.99l4.23-5.36,4.39-5.25c-.42-.31-.84-.6-1.27-.89s-.86-.56-1.3-.83l-3.18,6.06-3.34,5.95.47.32Z"></path><path class="cls-8" d="M20.07,15.68l-3.33-5.96-3.17-6.07c-.44.27-.88.55-1.31.83s-.85.58-1.26.88l4.38,5.26,4.22,5.37.48-.31Z"></path><path class="cls-10" d="M15.99,19.61l-5.36-4.23-5.25-4.39c-.31.42-.6.84-.89,1.27s-.56.86-.83,1.3l6.06,3.18,5.95,3.34.32-.47Z"></path><path class="cls-2" d="M13.71,24.8l-6.57-1.86-6.54-2.05c-.12.5-.23,1.01-.34,1.51S.08,23.42,0,23.93l6.82.62,6.78.81.12-.56Z"></path><path class="cls-1" d="M13.61,30.47l-6.78.8-6.82.61c.08.51.17,1.02.27,1.53s.21,1.01.33,1.5l6.54-2.03,6.57-1.84-.11-.56Z"></path><path class="cls-3" d="M14.02,36.68l-4.31,2.41-6.07,3.17c.27.44.55.88.83,1.31.29.43.58.85.88,1.26l5.26-4.38,3.88-3.05c-.17-.24-.33-.47-.48-.72Z"></path><path class="cls-4" d="M49.01,31.28l-4.98-.6c-.05.28-.1.56-.16.84l4.81,1.36,5.66,1.77c.23-.93.42-1.88.55-2.84l-5.88-.54Z"></path></svg>